<svg width="35" height="35" viewBox="0 0 35 35" fill="none" xmlns="http://www.w3.org/2000/svg">
<circle cx="17.5" cy="17.5" r="17.5" fill="#885FFF"/>
<g clip-path="url(#clip0_7_2491)">
<path d="M11.7547 16.113C14.1619 16.113 16.1132 14.1616 16.1132 11.7545C16.1132 9.34736 14.1619 7.396 11.7547 7.396C9.3476 7.396 7.39624 9.34736 7.39624 11.7545C7.39624 14.1616 9.3476 16.113 11.7547 16.113Z" fill="white"/>
</g>
<path d="M22.5658 8.52858C22.8737 8.01586 23.617 8.01586 23.9248 8.52858L27.2801 14.1205C27.5971 14.6487 27.2167 15.3207 26.6006 15.3207H19.8901C19.2743 15.3207 18.894 14.6487 19.2105 14.1205L22.5658 8.52858Z" fill="white"/>
<g clip-path="url(#clip1_7_2491)">
<path d="M26.4152 19.2832H20.0755C19.6379 19.2832 19.2831 19.638 19.2831 20.0757V26.4153C19.2831 26.8529 19.6379 27.2077 20.0755 27.2077H26.4152C26.8528 27.2077 27.2076 26.8529 27.2076 26.4153V20.0757C27.2076 19.638 26.8528 19.2832 26.4152 19.2832Z" fill="white"/>
<path d="M22.6945 19.5113C22.8405 19.3652 23.0386 19.2832 23.2452 19.2832C23.4518 19.2832 23.6499 19.3652 23.796 19.5113L26.9792 22.6946C27.1253 22.8407 27.2073 23.0388 27.2073 23.2453C27.2073 23.4519 27.1253 23.65 26.9792 23.7961L23.796 26.9794C23.6499 27.1254 23.4518 27.2075 23.2452 27.2075C23.0386 27.2075 22.8405 27.1254 22.6945 26.9794L19.5112 23.7961C19.3651 23.65 19.2831 23.4519 19.2831 23.2453C19.2831 23.0388 19.3651 22.8407 19.5112 22.6946L22.6945 19.5113Z" fill="white"/>
</g>
<path d="M11.2039 19.5113C11.3499 19.3652 11.548 19.2832 11.7546 19.2832C11.9612 19.2832 12.1593 19.3652 12.3054 19.5113L15.4886 22.6946C15.6347 22.8407 15.7167 23.0388 15.7167 23.2453C15.7167 23.4519 15.6347 23.65 15.4886 23.7961L12.3054 26.9794C12.1593 27.1254 11.9612 27.2075 11.7546 27.2075C11.548 27.2075 11.3499 27.1254 11.2039 26.9794L8.02057 23.7961C7.87453 23.65 7.79248 23.4519 7.79248 23.2453C7.79248 23.0388 7.87453 22.8407 8.02057 22.6946L11.2039 19.5113Z" fill="white"/>
<defs>
<clipPath id="clip0_7_2491">
<rect width="9.50943" height="9.50943" fill="white" transform="translate(7 7)"/>
</clipPath>
<clipPath id="clip1_7_2491">
<rect width="9.50943" height="9.50943" fill="white" transform="translate(18.4906 18.4907)"/>
</clipPath>
</defs>
</svg>
