<svg width="20" height="20" viewBox="0 0 20 20" fill="none" xmlns="http://www.w3.org/2000/svg">
<path d="M18.3334 16.6667V10.145C18.3334 9.69131 18.2408 9.24235 18.0613 8.82566C17.8817 8.40896 17.619 8.03331 17.2892 7.72171L11.145 1.91504C10.8356 1.62248 10.4259 1.45947 10 1.45947C9.57417 1.45947 9.16447 1.62248 8.85502 1.91504L2.71085 7.72171C2.38104 8.03331 2.11831 8.40896 1.93877 8.82566C1.75922 9.24235 1.66664 9.69131 1.66669 10.145V16.6667C1.66669 17.1087 1.84228 17.5327 2.15484 17.8452C2.4674 18.1578 2.89133 18.3334 3.33335 18.3334H16.6667C17.1087 18.3334 17.5326 18.1578 17.8452 17.8452C18.1578 17.5327 18.3334 17.1087 18.3334 16.6667Z" stroke="#5E6872" stroke-width="2" stroke-linecap="round" stroke-linejoin="round"/>
</svg>
