<svg width="26" height="26" viewBox="0 0 26 26" fill="none" xmlns="http://www.w3.org/2000/svg">
<path d="M15.1667 3.54125C15.1667 2.78184 14.5513 2.1665 13.7919 2.1665H12.2092C11.4487 2.1665 10.8333 2.78184 10.8333 3.54125C10.8333 4.16742 10.4043 4.70475 9.82042 4.93442C9.72834 4.97125 9.63626 5.01025 9.54634 5.04925C8.97109 5.29842 8.28751 5.22259 7.84334 4.7795C7.58555 4.5219 7.23603 4.37719 6.87159 4.37719C6.50715 4.37719 6.15763 4.5219 5.89984 4.7795L4.77967 5.89967C4.52207 6.15746 4.37736 6.50698 4.37736 6.87142C4.37736 7.23586 4.52207 7.58538 4.77967 7.84317V7.84317C5.22384 8.28734 5.29967 8.96984 5.04834 9.54617C5.00885 9.63687 4.97093 9.72825 4.93459 9.82025C4.70492 10.4042 4.16759 10.8332 3.54142 10.8332C2.78201 10.8332 2.16667 11.4485 2.16667 12.2079V13.7918C2.16667 14.5512 2.78201 15.1665 3.54142 15.1665C4.16759 15.1665 4.70492 15.5955 4.93459 16.1794C4.97142 16.2715 5.01042 16.3636 5.04834 16.4535C5.29859 17.0288 5.22276 17.7123 4.77967 18.1565C4.52207 18.4143 4.37736 18.7638 4.37736 19.1283C4.37736 19.4927 4.52207 19.8422 4.77967 20.1L5.89984 21.2202C6.15763 21.4778 6.50715 21.6225 6.87159 21.6225C7.23603 21.6225 7.58555 21.4778 7.84334 21.2202C8.28751 20.776 8.97001 20.7002 9.54634 20.9504C9.63626 20.9905 9.72834 21.0284 9.82042 21.0653C10.4043 21.2949 10.8333 21.8323 10.8333 22.4584C10.8333 23.2178 11.4487 23.8332 12.2081 23.8332H13.7919C14.5513 23.8332 15.1667 23.2178 15.1667 22.4584C15.1667 21.8323 15.5957 21.2949 16.1796 21.0642C16.2717 21.0284 16.3638 20.9905 16.4537 20.9515C17.0289 20.7002 17.7125 20.7771 18.1556 21.2202C18.2833 21.3479 18.4348 21.4492 18.6017 21.5183C18.7685 21.5874 18.9473 21.623 19.1279 21.623C19.3085 21.623 19.4873 21.5874 19.6541 21.5183C19.8209 21.4492 19.9725 21.3479 20.1002 21.2202L21.2203 20.1C21.4779 19.8422 21.6227 19.4927 21.6227 19.1283C21.6227 18.7638 21.4779 18.4143 21.2203 18.1565V18.1565C20.7762 17.7123 20.7003 17.0298 20.9506 16.4535C20.9907 16.3636 21.0286 16.2715 21.0654 16.1794C21.2951 15.5955 21.8324 15.1665 22.4586 15.1665C23.218 15.1665 23.8333 14.5512 23.8333 13.7918V12.209C23.8333 11.4496 23.218 10.8343 22.4586 10.8343C21.8324 10.8343 21.2951 10.4053 21.0643 9.82134C21.028 9.72931 20.9901 9.63794 20.9506 9.54725C20.7014 8.972 20.7773 8.28842 21.2203 7.84425C21.4779 7.58647 21.6227 7.23694 21.6227 6.8725C21.6227 6.50807 21.4779 6.15854 21.2203 5.90075L20.1002 4.78059C19.8424 4.52298 19.4929 4.37828 19.1284 4.37828C18.764 4.37828 18.4145 4.52298 18.1567 4.78059V4.78059C17.7125 5.22475 17.03 5.30059 16.4537 5.05034C16.363 5.01048 16.2716 4.9722 16.1796 4.9355C15.5957 4.70475 15.1667 4.16742 15.1667 3.54234V3.54125Z" fill="#B6BABD"/>
<path d="M17.3333 12.9998C17.3333 14.1491 16.8768 15.2513 16.0641 16.064C15.2515 16.8766 14.1493 17.3332 13 17.3332C11.8507 17.3332 10.7485 16.8766 9.93588 16.064C9.12322 15.2513 8.66667 14.1491 8.66667 12.9998C8.66667 11.8506 9.12322 10.7484 9.93588 9.93571C10.7485 9.12305 11.8507 8.6665 13 8.6665C14.1493 8.6665 15.2515 9.12305 16.0641 9.93571C16.8768 10.7484 17.3333 11.8506 17.3333 12.9998V12.9998Z" fill="#5E6872"/>
</svg>
