<svg width="35" height="35" viewBox="0 0 35 35" fill="none" xmlns="http://www.w3.org/2000/svg">
<circle cx="17.5" cy="17.5" r="17.5" fill="#F98F54"/>
<path d="M25.375 21.0002V14.0002C25.3747 13.6933 25.2937 13.3919 25.1401 13.1262C24.9865 12.8605 24.7658 12.6399 24.5 12.4864L18.375 8.98641C18.109 8.83281 17.8072 8.75195 17.5 8.75195C17.1928 8.75195 16.891 8.83281 16.625 8.98641L10.5 12.4864C10.2342 12.6399 10.0135 12.8605 9.8599 13.1262C9.70632 13.3919 9.62531 13.6933 9.625 14.0002V21.0002C9.62531 21.307 9.70632 21.6084 9.8599 21.8741C10.0135 22.1398 10.2342 22.3605 10.5 22.5139L16.625 26.0139C16.891 26.1675 17.1928 26.2484 17.5 26.2484C17.8072 26.2484 18.109 26.1675 18.375 26.0139L24.5 22.5139C24.7658 22.3605 24.9865 22.1398 25.1401 21.8741C25.2937 21.6084 25.3747 21.307 25.375 21.0002Z" stroke="white" stroke-width="2" stroke-linecap="round" stroke-linejoin="round"/>
<path d="M9.86121 13.0898L17.5 17.5086L25.1387 13.0898" stroke="white" stroke-width="2" stroke-linecap="round" stroke-linejoin="round"/>
<path d="M17.5 26.32V17.5" stroke="white" stroke-width="2" stroke-linecap="round" stroke-linejoin="round"/>
</svg>
