<svg width="32" height="27" viewBox="0 0 32 27" fill="none" xmlns="http://www.w3.org/2000/svg">
<path d="M9.78107 8.41977L8.1929 8.41652C4.57023 8.40786 1.42532 11.3513 1.4004 14.9165V19.0224C1.4004 19.8782 1.29207 20.7134 0.825149 21.4252L0.514232 21.8997C0.0408152 22.619 0.549982 23.5832 1.4004 23.5832H16.5996C17.45 23.5832 17.9581 22.619 17.4857 21.8997L17.1748 21.4252C16.709 20.7134 16.5996 19.8771 16.5996 19.0213V14.9176C16.5562 11.3513 13.4037 8.42844 9.78107 8.41977Z" fill="#BEBEC2"/>
<path d="M12.25 23.5835C12.25 24.4454 11.9076 25.2721 11.2981 25.8816C10.6886 26.4911 9.86195 26.8335 9 26.8335C8.13805 26.8335 7.3114 26.4911 6.7019 25.8816C6.09241 25.2721 5.75 24.4454 5.75 23.5835" fill="#6F6E73"/>
<path d="M8.99999 5.1665C9.57463 5.1665 10.1257 5.39478 10.5321 5.80111C10.9384 6.20743 11.1667 6.75853 11.1667 7.33317V8.4165H6.83333V7.33317C6.83333 6.75853 7.0616 6.20743 7.46793 5.80111C7.87426 5.39478 8.42536 5.1665 8.99999 5.1665Z" fill="#6F6E73"/>
<rect x="9" y="1" width="21" height="15" rx="7.5" fill="#D2625B"/>
<path d="M17.8213 12.135C18.2713 12.135 18.678 12.0333 19.0413 11.83C19.4046 11.6267 19.693 11.3467 19.9063 10.99C20.1196 10.63 20.2263 10.2217 20.2263 9.765C20.2263 9.375 20.1496 9.01833 19.9963 8.695C19.8463 8.37167 19.6296 8.10667 19.3463 7.9C19.0663 7.69 18.7313 7.55833 18.3413 7.505L20.1213 5.795V4.8H15.7913V5.795H18.8413L16.6413 7.74L17.1313 8.565C17.3546 8.445 17.5813 8.385 17.8113 8.385C18.2113 8.385 18.5346 8.515 18.7813 8.775C19.0313 9.035 19.1563 9.365 19.1563 9.765C19.1563 10.1617 19.033 10.49 18.7863 10.75C18.5396 11.0067 18.218 11.1383 17.8213 11.145C17.528 11.1483 17.2613 11.0683 17.0213 10.905C16.7813 10.7417 16.613 10.5033 16.5163 10.19L15.5063 10.47C15.6096 10.81 15.7746 11.105 16.0013 11.355C16.2313 11.605 16.503 11.7983 16.8163 11.935C17.1296 12.0683 17.4646 12.135 17.8213 12.135ZM22.63 12H23.695V4.8H22.63L21.275 5.61V6.775L22.63 5.95V12Z" fill="white"/>
</svg>
